<?xml version="1.0" encoding="UTF-8" standalone="no"?>
<!DOCTYPE svg PUBLIC "-//W3C//DTD SVG 1.1//EN"
 "http://www.w3.org/Graphics/SVG/1.1/DTD/svg11.dtd">
<!-- Generated by graphviz version 2.40.1 (20161225.0304)
 -->
<!-- Title: offflow Pages: 1 -->
<svg width="1458pt" height="362pt"
 viewBox="0.00 0.00 1458.28 362.00" xmlns="http://www.w3.org/2000/svg" xmlns:xlink="http://www.w3.org/1999/xlink">
<g id="graph0" class="graph" transform="scale(1 1) rotate(0) translate(4 358)">
<title>offflow</title>
<polygon fill="#ffffff" stroke="transparent" points="-4,4 -4,-358 1454.283,-358 1454.283,4 -4,4"/>
<g id="clust1" class="cluster">
<title>cluster_wctnominal</title>
<polygon fill="none" stroke="#000000" points="8,-8 8,-139 410.4619,-139 410.4619,-8 8,-8"/>
<text text-anchor="middle" x="209.231" y="-123.8" font-family="Times,serif" font-size="14.00" fill="#000000">Nominal, single WCT pipeline</text>
</g>
<g id="clust3" class="cluster">
<title>cluster_wct1</title>
<polygon fill="none" stroke="#000000" points="8,-161 8,-346 425.9239,-346 425.9239,-161 8,-161"/>
<text text-anchor="middle" x="216.9619" y="-330.8" font-family="Times,serif" font-size="14.00" fill="#000000">WCT graph with offloading</text>
</g>
<g id="clust4" class="cluster">
<title>cluster_node2</title>
<polygon fill="none" stroke="#000000" points="163.2036,-169 163.2036,-315 417.9239,-315 417.9239,-169 163.2036,-169"/>
<text text-anchor="middle" x="290.5637" y="-299.8" font-family="Times,serif" font-size="14.00" fill="#000000">FrameFilter node offloading</text>
<text text-anchor="middle" x="290.5637" y="-284.8" font-family="Times,serif" font-size="14.00" fill="#000000">(hundreds of such nodes)</text>
</g>
<g id="clust6" class="cluster">
<title>cluster_taskqueue</title>
<polygon fill="none" stroke="#000000" points="538.7174,-144 538.7174,-322 1062.2881,-322 1062.2881,-144 538.7174,-144"/>
<text text-anchor="middle" x="800.5027" y="-306.8" font-family="Times,serif" font-size="14.00" fill="#000000">The task queue</text>
</g>
<g id="clust7" class="cluster">
<title>cluster_sync_converter</title>
<polygon fill="none" stroke="#000000" points="546.7174,-153 546.7174,-290 905.8789,-290 905.8789,-153 546.7174,-153"/>
<text text-anchor="middle" x="726.2982" y="-274.8" font-family="Times,serif" font-size="14.00" fill="#000000">Adapter</text>
</g>
<g id="clust8" class="cluster">
<title>cluster_majordomo</title>
<polygon fill="none" stroke="#000000" points="933.8789,-152 933.8789,-291 1054.2881,-291 1054.2881,-152 933.8789,-152"/>
<text text-anchor="middle" x="994.0835" y="-275.8" font-family="Times,serif" font-size="14.00" fill="#000000">Majordomo broker</text>
</g>
<g id="clust9" class="cluster">
<title>cluster_worker</title>
<polygon fill="none" stroke="#000000" points="1074.2881,-153 1074.2881,-290 1337.283,-290 1337.283,-153 1074.2881,-153"/>
<text text-anchor="middle" x="1205.7855" y="-274.8" font-family="Times,serif" font-size="14.00" fill="#000000">Simple worker</text>
</g>
<g id="clust11" class="cluster">
<title>cluster_wctworker</title>
<polygon fill="none" stroke="#000000" points="1074.2881,-8 1074.2881,-145 1442.283,-145 1442.283,-8 1074.2881,-8"/>
<text text-anchor="middle" x="1258.2855" y="-129.8" font-family="Times,serif" font-size="14.00" fill="#000000">WCT FrameFilter component as worker</text>
</g>
<!-- noden -->
<g id="node1" class="node">
<title>noden</title>
<polygon fill="none" stroke="#000000" points="282,-108 141,-108 141,-70 282,-70 282,-108"/>
<text text-anchor="middle" x="211.5" y="-92.8" font-family="Times,serif" font-size="14.00" fill="#000000">DNNROI</text>
<text text-anchor="middle" x="211.5" y="-77.8" font-family="Times,serif" font-size="14.00" fill="#000000">(on=CPU or on=GPU)</text>
</g>
<!-- sinkn -->
<g id="node3" class="node">
<title>sinkn</title>
<polygon fill="none" stroke="#000000" points="402.4619,-107 325.4619,-107 325.4619,-71 402.4619,-71 402.4619,-107"/>
<text text-anchor="middle" x="363.9619" y="-85.3" font-family="Times,serif" font-size="14.00" fill="#000000">FrameSink</text>
</g>
<!-- noden&#45;&gt;sinkn -->
<g id="edge2" class="edge">
<title>noden&#45;&gt;sinkn</title>
<path fill="none" stroke="#000000" d="M282.3749,-89C293.4561,-89 304.6889,-89 315.1307,-89"/>
<polygon fill="#000000" stroke="#000000" points="315.2738,-92.5001 325.2738,-89 315.2737,-85.5001 315.2738,-92.5001"/>
</g>
<!-- sourcen -->
<g id="node2" class="node">
<title>sourcen</title>
<polygon fill="none" stroke="#000000" points="105,-107 16,-107 16,-71 105,-71 105,-107"/>
<text text-anchor="middle" x="60.5" y="-85.3" font-family="Times,serif" font-size="14.00" fill="#000000">FrameSource</text>
</g>
<!-- sourcen&#45;&gt;noden -->
<g id="edge1" class="edge">
<title>sourcen&#45;&gt;noden</title>
<path fill="none" stroke="#000000" d="M105.3961,-89C113.3942,-89 121.9437,-89 130.5884,-89"/>
<polygon fill="#000000" stroke="#000000" points="130.7529,-92.5001 140.7528,-89 130.7528,-85.5001 130.7529,-92.5001"/>
</g>
<!-- ngpu -->
<g id="node4" class="node">
<title>ngpu</title>
<polygon fill="none" stroke="#000000" points="242.4074,-26.5442 242.4074,-41.4558 224.3023,-52 198.6977,-52 180.5926,-41.4558 180.5926,-26.5442 198.6977,-16 224.3023,-16 242.4074,-26.5442"/>
<text text-anchor="middle" x="211.5" y="-30.3" font-family="Times,serif" font-size="14.00" fill="#000000">GPU</text>
</g>
<!-- ngpu&#45;&gt;noden -->
<g id="edge3" class="edge">
<title>ngpu&#45;&gt;noden</title>
<path fill="none" stroke="#000000" d="M211.5,-62.1152C211.5,-62.2783 211.5,-62.4414 211.5,-62.6046"/>
<polygon fill="#000000" stroke="#000000" points="215.0001,-62.0468 211.5,-52.0469 208.0001,-62.0469 215.0001,-62.0468"/>
<polygon fill="#000000" stroke="#000000" points="208.0001,-59.946 211.5,-69.946 215.0001,-59.9461 208.0001,-59.946"/>
</g>
<!-- source1 -->
<g id="node5" class="node">
<title>source1</title>
<polygon fill="none" stroke="#000000" points="105,-268 16,-268 16,-232 105,-232 105,-268"/>
<text text-anchor="middle" x="60.5" y="-246.3" font-family="Times,serif" font-size="14.00" fill="#000000">FrameSource</text>
</g>
<!-- pack1 -->
<g id="node7" class="node">
<title>pack1</title>
<ellipse fill="none" stroke="#000000" cx="211.5" cy="-250" rx="31.6951" ry="18"/>
<text text-anchor="middle" x="211.5" y="-246.3" font-family="Times,serif" font-size="14.00" fill="#000000">pack1</text>
</g>
<!-- source1&#45;&gt;pack1 -->
<g id="edge6" class="edge">
<title>source1&#45;&gt;pack1</title>
<path fill="none" stroke="#000000" d="M105.3961,-250C125.6805,-250 149.5126,-250 169.4462,-250"/>
<polygon fill="#000000" stroke="#000000" points="169.4754,-253.5001 179.4753,-250 169.4753,-246.5001 169.4754,-253.5001"/>
</g>
<!-- sink1 -->
<g id="node6" class="node">
<title>sink1</title>
<polygon fill="none" stroke="#000000" points="99,-214 22,-214 22,-178 99,-178 99,-214"/>
<text text-anchor="middle" x="60.5" y="-192.3" font-family="Times,serif" font-size="14.00" fill="#000000">FrameSink</text>
</g>
<!-- unpack1 -->
<g id="node9" class="node">
<title>unpack1</title>
<ellipse fill="none" stroke="#000000" cx="211.5" cy="-196" rx="40.0939" ry="18"/>
<text text-anchor="middle" x="211.5" y="-192.3" font-family="Times,serif" font-size="14.00" fill="#000000">unpack1</text>
</g>
<!-- sink1&#45;&gt;unpack1 -->
<g id="edge7" class="edge">
<title>sink1&#45;&gt;unpack1</title>
<path fill="none" stroke="#000000" d="M109.5196,-196C129.4563,-196 152.2137,-196 171.165,-196"/>
<polygon fill="#000000" stroke="#000000" points="109.3863,-192.5001 99.3863,-196 109.3862,-199.5001 109.3863,-192.5001"/>
</g>
<!-- socket1 -->
<g id="node8" class="node">
<title>socket1</title>
<ellipse fill="none" stroke="#000000" cx="363.9619" cy="-223" rx="45.9239" ry="45.9239"/>
<text text-anchor="middle" x="363.9619" y="-234.3" font-family="Times,serif" font-size="14.00" fill="#000000">ZIO</text>
<text text-anchor="middle" x="363.9619" y="-219.3" font-family="Times,serif" font-size="14.00" fill="#000000">CLIENT</text>
<text text-anchor="middle" x="363.9619" y="-204.3" font-family="Times,serif" font-size="14.00" fill="#000000">socket</text>
</g>
<!-- pack1&#45;&gt;socket1 -->
<g id="edge4" class="edge">
<title>pack1&#45;&gt;socket1</title>
<path fill="none" stroke="#000000" d="M241.9865,-244.601C260.9767,-241.238 285.9769,-236.8106 308.3973,-232.8401"/>
<polygon fill="#000000" stroke="#000000" points="309.2497,-236.2437 318.4861,-231.0535 308.029,-229.351 309.2497,-236.2437"/>
</g>
<!-- request -->
<g id="node21" class="node">
<title>request</title>
<ellipse fill="none" stroke="#000000" cx="482.3207" cy="-237" rx="36.2938" ry="18"/>
<text text-anchor="middle" x="482.3207" y="-233.3" font-family="Times,serif" font-size="14.00" fill="#000000">request</text>
</g>
<!-- socket1&#45;&gt;request -->
<g id="edge18" class="edge">
<title>socket1&#45;&gt;request</title>
<path fill="none" stroke="#000000" d="M409.7225,-228.4128C418.5125,-229.4525 427.7195,-230.5415 436.511,-231.5814"/>
<polygon fill="#000000" stroke="#000000" points="436.249,-235.0748 446.5909,-232.7737 437.0713,-228.1232 436.249,-235.0748"/>
</g>
<!-- reply -->
<g id="node22" class="node">
<title>reply</title>
<ellipse fill="none" stroke="#000000" cx="482.3207" cy="-183" rx="28.6953" ry="18"/>
<text text-anchor="middle" x="482.3207" y="-179.3" font-family="Times,serif" font-size="14.00" fill="#000000">reply</text>
</g>
<!-- socket1&#45;&gt;reply -->
<g id="edge20" class="edge">
<title>socket1&#45;&gt;reply</title>
<path fill="none" stroke="#000000" d="M417.1784,-205.0152C431.0285,-200.3345 445.3186,-195.5051 456.9729,-191.5664"/>
<polygon fill="#000000" stroke="#000000" points="416.0511,-201.7016 407.6981,-208.2191 418.2923,-208.3332 416.0511,-201.7016"/>
</g>
<!-- unpack1&#45;&gt;socket1 -->
<g id="edge5" class="edge">
<title>unpack1&#45;&gt;socket1</title>
<path fill="none" stroke="#000000" d="M259.1138,-204.4321C278.0835,-207.7915 299.8191,-211.6407 318.5635,-214.9602"/>
<polygon fill="#000000" stroke="#000000" points="259.6444,-200.9717 249.1872,-202.6742 258.4237,-207.8644 259.6444,-200.9717"/>
</g>
<!-- fe -->
<g id="node10" class="node">
<title>fe</title>
<ellipse fill="none" stroke="#000000" cx="602.8007" cy="-210" rx="48.1667" ry="48.1667"/>
<text text-anchor="middle" x="602.8007" y="-221.3" font-family="Times,serif" font-size="14.00" fill="#000000">ZIO</text>
<text text-anchor="middle" x="602.8007" y="-206.3" font-family="Times,serif" font-size="14.00" fill="#000000">SERVER</text>
<text text-anchor="middle" x="602.8007" y="-191.3" font-family="Times,serif" font-size="14.00" fill="#000000">socket</text>
</g>
<!-- addr -->
<g id="node12" class="node">
<title>addr</title>
<polygon fill="none" stroke="#000000" points="762.8839,-228 686.8839,-228 686.8839,-192 762.8839,-192 762.8839,-228"/>
<text text-anchor="middle" x="724.8839" y="-206.3" font-family="Times,serif" font-size="14.00" fill="#000000">conversion</text>
</g>
<!-- fe&#45;&gt;addr -->
<g id="edge8" class="edge">
<title>fe&#45;&gt;addr</title>
<path fill="none" stroke="#000000" d="M661.1789,-210C666.3395,-210 671.5256,-210 676.5892,-210"/>
<polygon fill="#000000" stroke="#000000" points="661.0513,-206.5001 651.0512,-210 661.0512,-213.5001 661.0513,-206.5001"/>
<polygon fill="#000000" stroke="#000000" points="676.7635,-213.5001 686.7634,-210 676.7634,-206.5001 676.7635,-213.5001"/>
</g>
<!-- be -->
<g id="node11" class="node">
<title>be</title>
<ellipse fill="none" stroke="#000000" cx="848.3814" cy="-210" rx="49.4949" ry="49.4949"/>
<text text-anchor="middle" x="848.3814" y="-221.3" font-family="Times,serif" font-size="14.00" fill="#000000">MDP</text>
<text text-anchor="middle" x="848.3814" y="-206.3" font-family="Times,serif" font-size="14.00" fill="#000000">DEALER</text>
<text text-anchor="middle" x="848.3814" y="-191.3" font-family="Times,serif" font-size="14.00" fill="#000000">socket</text>
</g>
<!-- mdp -->
<g id="node13" class="node">
<title>mdp</title>
<ellipse fill="none" stroke="#000000" cx="994.0835" cy="-210" rx="50.41" ry="50.41"/>
<text text-anchor="middle" x="994.0835" y="-221.3" font-family="Times,serif" font-size="14.00" fill="#000000">MDP</text>
<text text-anchor="middle" x="994.0835" y="-206.3" font-family="Times,serif" font-size="14.00" fill="#000000">ROUTER</text>
<text text-anchor="middle" x="994.0835" y="-191.3" font-family="Times,serif" font-size="14.00" fill="#000000">socket</text>
</g>
<!-- be&#45;&gt;mdp -->
<g id="edge15" class="edge">
<title>be&#45;&gt;mdp</title>
<path fill="none" stroke="#000000" d="M908.2732,-210C916.6123,-210 925.1856,-210 933.5367,-210"/>
<polygon fill="#000000" stroke="#000000" points="908.1163,-206.5001 898.1163,-210 908.1163,-213.5001 908.1163,-206.5001"/>
<polygon fill="#000000" stroke="#000000" points="933.5824,-213.5001 943.5823,-210 933.5823,-206.5001 933.5824,-213.5001"/>
</g>
<!-- addr&#45;&gt;be -->
<g id="edge9" class="edge">
<title>addr&#45;&gt;be</title>
<path fill="none" stroke="#000000" d="M773.0476,-210C778.2064,-210 783.4982,-210 788.7692,-210"/>
<polygon fill="#000000" stroke="#000000" points="772.945,-206.5001 762.945,-210 772.9449,-213.5001 772.945,-206.5001"/>
<polygon fill="#000000" stroke="#000000" points="788.8397,-213.5001 798.8396,-210 788.8396,-206.5001 788.8397,-213.5001"/>
</g>
<!-- wdealer1 -->
<g id="node14" class="node">
<title>wdealer1</title>
<ellipse fill="none" stroke="#000000" cx="1131.7855" cy="-210" rx="49.4949" ry="49.4949"/>
<text text-anchor="middle" x="1131.7855" y="-221.3" font-family="Times,serif" font-size="14.00" fill="#000000">MDP</text>
<text text-anchor="middle" x="1131.7855" y="-206.3" font-family="Times,serif" font-size="14.00" fill="#000000">DEALER</text>
<text text-anchor="middle" x="1131.7855" y="-191.3" font-family="Times,serif" font-size="14.00" fill="#000000">socket</text>
</g>
<!-- mdp&#45;&gt;wdealer1 -->
<g id="edge16" class="edge">
<title>mdp&#45;&gt;wdealer1</title>
<path fill="none" stroke="#000000" d="M1054.8045,-210C1060.5317,-210 1066.335,-210 1072.0528,-210"/>
<polygon fill="#000000" stroke="#000000" points="1054.5768,-206.5001 1044.5767,-210 1054.5767,-213.5001 1054.5768,-206.5001"/>
<polygon fill="#000000" stroke="#000000" points="1072.2179,-213.5001 1082.2179,-210 1072.2178,-206.5001 1072.2179,-213.5001"/>
</g>
<!-- wctdealer -->
<g id="node17" class="node">
<title>wctdealer</title>
<ellipse fill="none" stroke="#000000" cx="1131.7855" cy="-65" rx="49.4949" ry="49.4949"/>
<text text-anchor="middle" x="1131.7855" y="-76.3" font-family="Times,serif" font-size="14.00" fill="#000000">MDP</text>
<text text-anchor="middle" x="1131.7855" y="-61.3" font-family="Times,serif" font-size="14.00" fill="#000000">DEALER</text>
<text text-anchor="middle" x="1131.7855" y="-46.3" font-family="Times,serif" font-size="14.00" fill="#000000">socket</text>
</g>
<!-- mdp&#45;&gt;wctdealer -->
<g id="edge17" class="edge">
<title>mdp&#45;&gt;wctdealer</title>
<path fill="none" stroke="#000000" d="M1035.9222,-165.9439C1053.1756,-147.7761 1073.1185,-126.7763 1090.3315,-108.651"/>
<polygon fill="#000000" stroke="#000000" points="1033.1799,-163.749 1028.8315,-173.4104 1038.2557,-168.5694 1033.1799,-163.749"/>
<polygon fill="#000000" stroke="#000000" points="1093.1773,-110.737 1097.5256,-101.0756 1088.1014,-105.9166 1093.1773,-110.737"/>
</g>
<!-- walgorithm1 -->
<g id="node15" class="node">
<title>walgorithm1</title>
<polygon fill="none" stroke="#000000" points="1329.283,-205 1217.283,-205 1217.283,-169 1329.283,-169 1329.283,-205"/>
<text text-anchor="middle" x="1273.283" y="-183.3" font-family="Times,serif" font-size="14.00" fill="#000000">worker algorithm</text>
</g>
<!-- wdealer1&#45;&gt;walgorithm1 -->
<g id="edge10" class="edge">
<title>wdealer1&#45;&gt;walgorithm1</title>
<path fill="none" stroke="#000000" d="M1190.884,-200.3937C1196.152,-199.5374 1201.5086,-198.6667 1206.8326,-197.8013"/>
<polygon fill="#000000" stroke="#000000" points="1190.1863,-196.9611 1180.8774,-202.0203 1191.3094,-203.8704 1190.1863,-196.9611"/>
<polygon fill="#000000" stroke="#000000" points="1207.6901,-201.208 1216.999,-196.1488 1206.5669,-194.2986 1207.6901,-201.208"/>
</g>
<!-- wgpu1 -->
<g id="node16" class="node">
<title>wgpu1</title>
<polygon fill="none" stroke="#000000" points="1304.1904,-233.5442 1304.1904,-248.4558 1286.0853,-259 1260.4807,-259 1242.3756,-248.4558 1242.3756,-233.5442 1260.4807,-223 1286.0853,-223 1304.1904,-233.5442"/>
<text text-anchor="middle" x="1273.283" y="-237.3" font-family="Times,serif" font-size="14.00" fill="#000000">GPU</text>
</g>
<!-- walgorithm1&#45;&gt;wgpu1 -->
<g id="edge11" class="edge">
<title>walgorithm1&#45;&gt;wgpu1</title>
<path fill="none" stroke="#000000" d="M1273.283,-215.3443C1273.283,-215.4994 1273.283,-215.6545 1273.283,-215.8096"/>
<polygon fill="#000000" stroke="#000000" points="1276.7831,-215.1406 1273.283,-205.1406 1269.7831,-215.1407 1276.7831,-215.1406"/>
<polygon fill="#000000" stroke="#000000" points="1269.7831,-212.7901 1273.283,-222.7902 1276.7831,-212.7902 1269.7831,-212.7901"/>
</g>
<!-- wctcode -->
<g id="node18" class="node">
<title>wctcode</title>
<polygon fill="none" stroke="#000000" points="1302.783,-72 1243.783,-72 1243.783,-34 1302.783,-34 1302.783,-72"/>
<text text-anchor="middle" x="1273.283" y="-56.8" font-family="Times,serif" font-size="14.00" fill="#000000">convert</text>
<text text-anchor="middle" x="1273.283" y="-41.8" font-family="Times,serif" font-size="14.00" fill="#000000">and call</text>
</g>
<!-- wctdealer&#45;&gt;wctcode -->
<g id="edge12" class="edge">
<title>wctdealer&#45;&gt;wctcode</title>
<path fill="none" stroke="#000000" d="M1191.4034,-59.944C1205.5669,-58.7428 1220.341,-57.4899 1233.3777,-56.3843"/>
<polygon fill="#000000" stroke="#000000" points="1190.9429,-56.4704 1181.2745,-60.803 1191.5345,-63.4453 1190.9429,-56.4704"/>
<polygon fill="#000000" stroke="#000000" points="1233.7471,-59.8656 1243.4155,-55.533 1233.1555,-52.8906 1233.7471,-59.8656"/>
</g>
<!-- wctframefilter -->
<g id="node19" class="node">
<title>wctframefilter</title>
<polygon fill="none" stroke="#000000" points="1434.283,-60 1365.283,-60 1365.283,-24 1434.283,-24 1434.283,-60"/>
<text text-anchor="middle" x="1399.783" y="-38.3" font-family="Times,serif" font-size="14.00" fill="#000000">DNNROI</text>
</g>
<!-- wctcode&#45;&gt;wctframefilter -->
<g id="edge13" class="edge">
<title>wctcode&#45;&gt;wctframefilter</title>
<path fill="none" stroke="#000000" d="M1312.9365,-49.5519C1326.2147,-48.3972 1341.1126,-47.1018 1354.77,-45.9142"/>
<polygon fill="#000000" stroke="#000000" points="1312.6008,-46.0678 1302.9416,-50.421 1313.2073,-53.0414 1312.6008,-46.0678"/>
<polygon fill="#000000" stroke="#000000" points="1355.2655,-49.3844 1364.9247,-45.0312 1354.659,-42.4107 1355.2655,-49.3844"/>
</g>
<!-- wctgpu -->
<g id="node20" class="node">
<title>wctgpu</title>
<polygon fill="none" stroke="#000000" points="1430.6904,-88.5442 1430.6904,-103.4558 1412.5853,-114 1386.9807,-114 1368.8756,-103.4558 1368.8756,-88.5442 1386.9807,-78 1412.5853,-78 1430.6904,-88.5442"/>
<text text-anchor="middle" x="1399.783" y="-92.3" font-family="Times,serif" font-size="14.00" fill="#000000">GPU</text>
</g>
<!-- wctframefilter&#45;&gt;wctgpu -->
<g id="edge14" class="edge">
<title>wctframefilter&#45;&gt;wctgpu</title>
<path fill="none" stroke="#000000" d="M1399.783,-70.3443C1399.783,-70.4994 1399.783,-70.6545 1399.783,-70.8096"/>
<polygon fill="#000000" stroke="#000000" points="1403.2831,-70.1406 1399.783,-60.1406 1396.2831,-70.1407 1403.2831,-70.1406"/>
<polygon fill="#000000" stroke="#000000" points="1396.2831,-67.7901 1399.783,-77.7902 1403.2831,-67.7902 1396.2831,-67.7901"/>
</g>
<!-- request&#45;&gt;fe -->
<g id="edge19" class="edge">
<title>request&#45;&gt;fe</title>
<path fill="none" stroke="#000000" d="M515.5613,-229.5507C524.9566,-227.4451 535.4566,-225.092 545.8272,-222.768"/>
<polygon fill="#000000" stroke="#000000" points="546.6976,-226.1598 555.6902,-220.5576 545.1668,-219.3292 546.6976,-226.1598"/>
</g>
<!-- reply&#45;&gt;fe -->
<g id="edge21" class="edge">
<title>reply&#45;&gt;fe</title>
<path fill="none" stroke="#000000" d="M519.4028,-191.3102C530.8024,-193.8649 543.507,-196.7121 555.4945,-199.3985"/>
<polygon fill="#000000" stroke="#000000" points="519.8821,-187.8309 509.3587,-189.0593 518.3513,-194.6615 519.8821,-187.8309"/>
</g>
</g>
</svg>
